<svg xmlns="http://www.w3.org/2000/svg" viewBox="0 0 198 195"><defs><clipPath id="a"><path d="M0 0h198v195H0z"/></clipPath></defs><g clip-path="url(#a)"><path d="M35.063 0h127.875A35.241 35.241 0 01198 35.417v124.166A35.241 35.241 0 01162.938 195H35.063A35.241 35.241 0 010 159.583V35.417A35.241 35.241 0 0135.063 0z" fill="#00005b"/><path d="M79.542 116.422H48.86l-6.243 19.43a1.56 1.56 0 01-1.594 1.2h-15.54q-1.33 0-.93-1.46l26.565-76.196.8-2.595a28.24 28.24 0 00.53-5.38.82.82 0 01.93-.93h21.116q.928 0 1.063.664l30.154 84.564q.4 1.33-.8 1.328H87.644a1.227 1.227 0 01-1.328-.93zm-25.9-16.383h20.986q-.8-2.655-1.86-5.977-1.06-3.322-2.256-7.106l-2.4-7.57q-1.2-3.785-2.192-7.305-.992-3.52-1.793-6.442H64a107.12 107.12 0 01-2.79 10.625q-1.862 5.977-3.785 12.22T53.64 100.04zm100.948 8.82h-26.166a18.66 18.66 0 002.524 7.318 13.656 13.656 0 006.043 4.98 25.257 25.257 0 0010.56 2.07 47.89 47.89 0 008.567-.94 31.53 31.53 0 007.366-1.92c.442-.353.664-.133.664.664v12.618c.022.345-.047.7-.2 1a1.89 1.89 0 01-.6.6 33.78 33.78 0 01-8.229 2.451 58.38 58.38 0 01-11.689 1q-9.433 0-15.806-2.922a28.17 28.17 0 01-10.36-7.837 30.69 30.69 0 01-5.71-10.832 42.64 42.64 0 01-1.727-12.02 41.84 41.84 0 012.06-13.083 34.302 34.302 0 016.176-11.3 29.67 29.67 0 019.962-7.837c3.9-1.9 8.5-2.586 13.814-2.586a29.985 29.985 0 0112.818 2.517 22.59 22.59 0 018.7 6.571 30.21 30.21 0 014.915 9.364 33.37 33.37 0 011.594 10.095q0 2.923-.2 5.313-.2 2.4-.332 3.453a1.2 1.2 0 01-1.2 1.063q-.8 0-2.723.2-1.923.2-4.782.266c-1.9.05-3.913-.275-6.038-.275zm-26.166-12.1h17.4q3.188 0 4.715-.066a4.64 4.64 0 001.926-.638v-.8a10.68 10.68 0 00-.53-3.055 10.85 10.85 0 00-10.759-7.571 11.54 11.54 0 00-10.958 6.243 19.503 19.503 0 00-1.793 5.885z" fill="#99f"/></g></svg>