<svg xmlns="http://www.w3.org/2000/svg" viewBox="0 0 198 195"><defs><clipPath id="a"><path d="M0 0h198v195H0z"/></clipPath></defs><g clip-path="url(#a)"><path data-name="Path 136" d="M35.063 0h127.875A35.211 35.211 0 01198 35.417v124.166A35.211 35.211 0 01162.938 195H35.063A35.211 35.211 0 010 159.583V35.417A35.211 35.211 0 0135.063 0z" fill="#00005b"/><g fill="#99f"><path data-name="Path 137" d="M47.025 136.293v-84.9c0-.578.247-.908.825-.908 1.4 0 2.723 0 4.62-.082 1.98-.083 4.043-.083 6.27-.165s4.62-.083 7.177-.165 5.033-.08 7.508-.08c6.765 0 12.375.825 16.995 2.558a29.461 29.461 0 0111.055 6.765 26.268 26.268 0 016.022 9.4 31.577 31.577 0 011.9 10.725q0 10.643-4.95 17.572a28.264 28.264 0 01-13.283 10.065c-5.61 2.063-11.8 2.8-18.563 2.8-1.98 0-3.3 0-4.125-.083s-1.98-.083-3.548-.083v26.482a1.027 1.027 0 01-.908 1.155h-16c-.665.011-.995-.318-.995-1.056zM65.01 66.41v27.72c1.155.082 2.227.165 3.217.165h4.372a30.817 30.817 0 009.488-1.485 14.188 14.188 0 006.765-4.372c1.732-2.062 2.558-4.868 2.558-8.5a13.579 13.579 0 00-1.9-7.342 11.964 11.964 0 00-5.775-4.7A24.208 24.208 0 0074 66.246c-2.145 0-4.042 0-5.61.082a18.89 18.89 0 00-3.382.083z"/><path data-name="Path 138" d="M120.945 71.195h14.438a1.858 1.858 0 011.732 1.32 8.378 8.378 0 01.5 2.063c.165.825.33 1.732.412 2.558.083.907.165 1.9.165 2.97a30.7 30.7 0 018.827-7.095 25.568 25.568 0 0112.54-3.218 1.027 1.027 0 011.155.908v16.418c0 .66-.413.907-1.32.907a35.872 35.872 0 00-8.91.825 33.95 33.95 0 00-6.93 2.227 12.825 12.825 0 00-4.208 3.052v42.075c0 .825-.33 1.155-1.073 1.155h-16.256a1.141 1.141 0 01-1.32-.99V90.335c0-1.98 0-4.042-.083-6.188s-.083-4.29-.165-6.435c0-1.9-.165-3.713-.33-5.61a.76.76 0 01.577-.907c0-.082.165-.082.248 0z"/></g></g></svg>
